# xmcd CD database file
#
# Track frame offsets:
#	150
#	27178
#	58319
#	95191
#	131721
#	145317
#	187369
#	209647
#
# Disc length: 3145 seconds
#
# Revision: 0
# Processed by: cddbd v1.5.2PL0 Copyright (c) Steve Scherf et al.
# Submitted via: CDex 1.79
#
DISCID=890c4708
DTITLE=Hans-Peter Salentin - Beyond Our Thoughts
DYEAR=2004
DGENRE=Jazz
TTITLE0=Beyond Our Thoughts
TTITLE1=Star-Movement
TTITLE2=White Code
TTITLE3=Easy Sunday
TTITLE4=Possible Answer
TTITLE5=Take Your Time
TTITLE6=Grounded
TTITLE7=Last Cowboy
EXTD=YEAR: 2004
EXTT0=
EXTT1=
EXTT2=
EXTT3=
EXTT4=
EXTT5=
EXTT6=
EXTT7=
PLAYORDER=
